<?xml version="1.0" encoding="utf-8"?>
<svg viewBox="0 0 674.79 632.773" style="filter: none;" xmlns="http://www.w3.org/2000/svg">
  <defs/>
  <rect y="-52.382" width="773.109" height="720.168" style="fill: rgb(11, 14, 24); stroke: rgb(11, 14, 24);" x="-86.554"/>
  <ellipse style="fill: rgb(216, 216, 216); stroke: rgb(0, 0, 0);" cx="132.752" cy="102.126" rx="2.5" ry="2.5"/>
  <ellipse style="fill: rgb(216, 216, 216); stroke: rgb(0, 0, 0);" cx="189.916" cy="339.215" rx="2.5" ry="2.5"/>
  <ellipse style="fill: rgb(216, 216, 216); stroke: rgb(0, 0, 0);" cx="248.74" cy="454.341" rx="2.5" ry="2.5"/>
  <ellipse style="fill: rgb(216, 216, 216); stroke: rgb(0, 0, 0);" cx="415.967" cy="61.904" rx="2.5" ry="2.5"/>
  <ellipse style="fill: rgb(216, 216, 216); stroke: rgb(0, 0, 0);" cx="550.42" cy="99.72" rx="2.5" ry="2.5"/>
  <ellipse style="fill: rgb(216, 216, 216); stroke: rgb(0, 0, 0);" cx="250.42" cy="82.913" rx="2.5" ry="2.5"/>
  <ellipse style="fill: rgb(216, 216, 216); stroke: rgb(0, 0, 0);" cx="426.05" cy="284.594" rx="2.5" ry="2.5"/>
  <ellipse style="fill: rgb(216, 216, 216); stroke: rgb(0, 0, 0);" cx="362.185" cy="249.299" rx="2.5" ry="2.5"/>
  <ellipse style="fill: rgb(216, 216, 216); stroke: rgb(0, 0, 0);" cx="535.294" cy="570.309" rx="2.5" ry="2.5"/>
  <ellipse style="fill: rgb(216, 216, 216); stroke: rgb(0, 0, 0);" cx="15.966" cy="550.14" rx="2.5" ry="2.5"/>
  <ellipse style="fill: rgb(216, 216, 216); stroke: rgb(0, 0, 0);" cx="415.967" cy="185.435" rx="2.5" ry="2.5"/>
  <ellipse style="fill: rgb(216, 216, 216); stroke: rgb(0, 0, 0);" cx="536.975" cy="477.03" rx="2.5" ry="2.5"/>
  <ellipse style="fill: rgb(216, 216, 216); stroke: rgb(0, 0, 0);" cx="642.857" cy="378.712" rx="2.5" ry="2.5"/>
  <ellipse style="fill: rgb(216, 216, 216); stroke: rgb(0, 0, 0);" cx="70.588" cy="44.258" rx="2.5" ry="2.5"/>
  <ellipse style="fill: rgb(216, 216, 216); stroke: rgb(0, 0, 0);" cx="47.059" cy="207.283" rx="2.5" ry="2.5"/>
  <ellipse style="fill: rgb(216, 216, 216); stroke: rgb(0, 0, 0);" cx="12.606" cy="410.644" rx="2.5" ry="2.5"/>
  <ellipse style="fill: rgb(216, 216, 216); stroke: rgb(0, 0, 0);" cx="245.378" cy="629.972" rx="2.5" ry="2.5"/>
  <ellipse style="fill: rgb(216, 216, 216); stroke: rgb(0, 0, 0);" cx="-15.967" cy="300.56" rx="2.5" ry="2.5"/>
  <ellipse style="fill: rgb(216, 216, 216); stroke: rgb(0, 0, 0);" cx="342.857" cy="404.762" rx="2.5" ry="2.5"/>
  <ellipse style="fill: rgb(216, 216, 216); stroke: rgb(0, 0, 0);" cx="70.588" cy="650.98" rx="2.5" ry="2.5"/>
  <ellipse style="fill: rgb(216, 216, 216); stroke: rgb(0, 0, 0);" cx="116.807" cy="527.451" rx="2.5" ry="2.5"/>
  <ellipse style="fill: rgb(216, 216, 216); stroke: rgb(0, 0, 0);" cx="-1.681" cy="122.596" rx="2.5" ry="2.5"/>
</svg>